# Blender 3.5.0
# www.blender.org
mtllib untitled.mtl
o Cube.001
v -0.250179 4.272489 0.176769
v -0.061770 4.272489 0.176769
v -0.250179 4.272489 -4.022996
v -0.061770 4.272489 -4.022996
v -0.250179 -0.249855 0.176769
v -0.061769 -0.249855 0.176769
v -0.250179 -0.249855 -4.022996
v -0.061769 -0.249855 -4.022996
vn -0.0000 1.0000 -0.0000
vn -0.0000 -0.0000 -1.0000
vn -0.0000 -1.0000 -0.0000
vn -0.0000 -0.0000 1.0000
vn -1.0000 -0.0000 -0.0000
vn 1.0000 -0.0000 -0.0000
vt 0.375000 0.000000
vt 0.375000 1.000000
vt 0.125000 0.750000
vt 0.625000 0.000000
vt 0.625000 1.000000
vt 0.875000 0.750000
vt 0.375000 0.250000
vt 0.125000 0.500000
vt 0.625000 0.250000
vt 0.875000 0.500000
vt 0.375000 0.750000
vt 0.625000 0.750000
vt 0.375000 0.500000
vt 0.625000 0.500000
s 0
usemtl Material.004
f 1/1/1 2/4/1 4/9/1 3/7/1
f 3/7/2 4/9/2 8/14/2 7/13/2
f 7/13/3 8/14/3 6/12/3 5/11/3
f 5/11/4 6/12/4 2/5/4 1/2/4
f 3/8/5 7/13/5 5/11/5 1/3/5
f 8/14/6 4/10/6 2/6/6 6/12/6
o Cube.002
v -0.277165 -0.097855 0.178830
v -0.277165 0.090554 0.178830
v -0.277165 -0.097855 -4.020934
v -0.277165 0.090554 -4.020934
v 4.245179 -0.097855 0.178830
v 4.245179 0.090554 0.178830
v 4.245179 -0.097855 -4.020934
v 4.245179 0.090554 -4.020934
vn -1.0000 -0.0000 -0.0000
vn -0.0000 -0.0000 -1.0000
vn 1.0000 -0.0000 -0.0000
vn -0.0000 -0.0000 1.0000
vn -0.0000 -1.0000 -0.0000
vn -0.0000 1.0000 -0.0000
vt 0.375000 0.000000
vt 0.375000 1.000000
vt 0.125000 0.750000
vt 0.625000 0.000000
vt 0.625000 1.000000
vt 0.875000 0.750000
vt 0.375000 0.250000
vt 0.125000 0.500000
vt 0.625000 0.250000
vt 0.875000 0.500000
vt 0.375000 0.750000
vt 0.625000 0.750000
vt 0.375000 0.500000
vt 0.625000 0.500000
s 0
usemtl Material.002
f 9/15/7 10/18/7 12/23/7 11/21/7
f 11/21/8 12/23/8 16/28/8 15/27/8
f 15/27/9 16/28/9 14/26/9 13/25/9
f 13/25/10 14/26/10 10/19/10 9/16/10
f 11/22/11 15/27/11 13/25/11 9/17/11
f 16/28/12 12/24/12 10/20/12 14/26/12
o Cube.003
v -0.277165 3.671727 0.178830
v -0.277165 3.860136 0.178830
v -0.277165 3.671727 -4.020934
v -0.277165 3.860136 -4.020934
v 4.245179 3.671727 0.178830
v 4.245179 3.860136 0.178830
v 4.245179 3.671727 -4.020934
v 4.245179 3.860136 -4.020934
vn -1.0000 -0.0000 -0.0000
vn -0.0000 -0.0000 -1.0000
vn 1.0000 -0.0000 -0.0000
vn -0.0000 -0.0000 1.0000
vn -0.0000 -1.0000 -0.0000
vn -0.0000 1.0000 -0.0000
vt 0.375000 0.000000
vt 0.375000 1.000000
vt 0.125000 0.750000
vt 0.625000 0.000000
vt 0.625000 1.000000
vt 0.875000 0.750000
vt 0.375000 0.250000
vt 0.125000 0.500000
vt 0.625000 0.250000
vt 0.875000 0.500000
vt 0.375000 0.750000
vt 0.625000 0.750000
vt 0.375000 0.500000
vt 0.625000 0.500000
s 0
usemtl Material
f 17/29/13 18/32/13 20/37/13 19/35/13
f 19/35/14 20/37/14 24/42/14 23/41/14
f 23/41/15 24/42/15 22/40/15 21/39/15
f 21/39/16 22/40/16 18/33/16 17/30/16
f 19/36/17 23/41/17 21/39/17 17/31/17
f 24/42/18 20/38/18 18/34/18 22/40/18
o Cube.004
v -0.685287 4.272489 -0.070850
v -0.685287 4.272489 0.117559
v 4.810059 4.272489 -0.070850
v 4.810059 4.272489 0.117559
v -0.685287 -0.249855 -0.070850
v -0.685287 -0.249855 0.117559
v 4.810060 -0.249855 -0.070850
v 4.810060 -0.249855 0.117559
vn -0.0000 1.0000 -0.0000
vn 1.0000 -0.0000 -0.0000
vn -0.0000 -1.0000 -0.0000
vn -1.0000 -0.0000 -0.0000
vn -0.0000 -0.0000 -1.0000
vn -0.0000 -0.0000 1.0000
vt 0.375000 0.000000
vt 0.375000 1.000000
vt 0.125000 0.750000
vt 0.625000 0.000000
vt 0.625000 1.000000
vt 0.875000 0.750000
vt 0.375000 0.250000
vt 0.125000 0.500000
vt 0.625000 0.250000
vt 0.875000 0.500000
vt 0.375000 0.750000
vt 0.625000 0.750000
vt 0.375000 0.500000
vt 0.625000 0.500000
s 0
usemtl Material.001
f 25/43/19 26/46/19 28/51/19 27/49/19
f 27/49/20 28/51/20 32/56/20 31/55/20
f 31/55/21 32/56/21 30/54/21 29/53/21
f 29/53/22 30/54/22 26/47/22 25/44/22
f 27/50/23 31/55/23 29/53/23 25/45/23
f 32/56/24 28/52/24 26/48/24 30/54/24
o Cube.007
v -0.654131 4.006671 -4.030540
v -0.654131 4.006671 -3.842130
v 2.509621 4.006671 -4.030540
v 2.509621 4.006671 -3.842130
v -0.654131 3.128490 -4.030540
v -0.654131 3.128490 -3.842130
v 2.509621 3.128490 -4.030540
v 2.509621 3.128490 -3.842130
v 0.460742 1.354137 -4.030540
v 0.460742 1.354137 -3.842130
v 4.090378 1.354137 -4.030540
v 4.090378 1.354137 -3.842130
v 0.460742 -0.366361 -4.030540
v 0.460742 -0.366361 -3.842130
v 4.090378 -0.366360 -4.030540
v 4.090378 -0.366360 -3.842130
v -0.635151 3.377295 -4.030540
v -0.635151 3.377295 -3.842130
v 0.480914 3.377295 -4.030540
v 0.480914 3.377295 -3.842130
v -0.635150 -0.392736 -4.030540
v -0.635150 -0.392736 -3.842130
v 0.480914 -0.392736 -4.030540
v 0.480914 -0.392736 -3.842130
v 1.929410 3.829798 -4.030540
v 1.929410 3.829798 -3.842130
v 4.122505 3.829798 -4.030540
v 4.122505 3.829798 -3.842130
v 1.929410 0.059767 -4.030540
v 1.929410 0.059767 -3.842130
v 4.122506 0.059767 -4.030540
v 4.122506 0.059767 -3.842130
vn -0.0000 1.0000 -0.0000
vn 1.0000 -0.0000 -0.0000
vn -0.0000 -1.0000 -0.0000
vn -1.0000 -0.0000 -0.0000
vn -0.0000 -0.0000 -1.0000
vn -0.0000 -0.0000 1.0000
vt 0.375000 0.000000
vt 0.375000 1.000000
vt 0.125000 0.750000
vt 0.625000 0.000000
vt 0.625000 1.000000
vt 0.875000 0.750000
vt 0.375000 0.250000
vt 0.125000 0.500000
vt 0.625000 0.250000
vt 0.875000 0.500000
vt 0.375000 0.750000
vt 0.625000 0.750000
vt 0.375000 0.500000
vt 0.625000 0.500000
vt 0.375000 0.000000
vt 0.375000 1.000000
vt 0.125000 0.750000
vt 0.625000 0.000000
vt 0.625000 1.000000
vt 0.875000 0.750000
vt 0.375000 0.250000
vt 0.125000 0.500000
vt 0.625000 0.250000
vt 0.875000 0.500000
vt 0.375000 0.750000
vt 0.625000 0.750000
vt 0.375000 0.500000
vt 0.625000 0.500000
vt 0.375000 0.000000
vt 0.375000 1.000000
vt 0.125000 0.750000
vt 0.625000 0.000000
vt 0.625000 1.000000
vt 0.875000 0.750000
vt 0.375000 0.250000
vt 0.125000 0.500000
vt 0.625000 0.250000
vt 0.875000 0.500000
vt 0.375000 0.750000
vt 0.625000 0.750000
vt 0.375000 0.500000
vt 0.625000 0.500000
vt 0.375000 0.000000
vt 0.375000 1.000000
vt 0.125000 0.750000
vt 0.625000 0.000000
vt 0.625000 1.000000
vt 0.875000 0.750000
vt 0.375000 0.250000
vt 0.125000 0.500000
vt 0.625000 0.250000
vt 0.875000 0.500000
vt 0.375000 0.750000
vt 0.625000 0.750000
vt 0.375000 0.500000
vt 0.625000 0.500000
s 0
usemtl Material.001
f 33/57/25 34/60/25 36/65/25 35/63/25
f 35/63/26 36/65/26 40/70/26 39/69/26
f 39/69/27 40/70/27 38/68/27 37/67/27
f 37/67/28 38/68/28 34/61/28 33/58/28
f 35/64/29 39/69/29 37/67/29 33/59/29
f 40/70/30 36/66/30 34/62/30 38/68/30
f 41/71/25 42/74/25 44/79/25 43/77/25
f 43/77/26 44/79/26 48/84/26 47/83/26
f 47/83/27 48/84/27 46/82/27 45/81/27
f 45/81/28 46/82/28 42/75/28 41/72/28
f 43/78/29 47/83/29 45/81/29 41/73/29
f 48/84/30 44/80/30 42/76/30 46/82/30
f 49/85/25 50/88/25 52/93/25 51/91/25
f 51/91/26 52/93/26 56/98/26 55/97/26
f 55/97/27 56/98/27 54/96/27 53/95/27
f 53/95/28 54/96/28 50/89/28 49/86/28
f 51/92/29 55/97/29 53/95/29 49/87/29
f 56/98/30 52/94/30 50/90/30 54/96/30
f 57/99/25 58/102/25 60/107/25 59/105/25
f 59/105/26 60/107/26 64/112/26 63/111/26
f 63/111/27 64/112/27 62/110/27 61/109/27
f 61/109/28 62/110/28 58/103/28 57/100/28
f 59/106/29 63/111/29 61/109/29 57/101/29
f 64/112/30 60/108/30 58/104/30 62/110/30
o Cube.009
v 3.965335 4.272489 0.176769
v 4.153744 4.272489 0.176769
v 3.965335 4.272489 -4.022996
v 4.153744 4.272489 -4.022996
v 3.965335 -0.249855 0.176769
v 4.153745 -0.249855 0.176769
v 3.965335 -0.249855 -4.022996
v 4.153745 -0.249855 -4.022996
vn -0.0000 1.0000 -0.0000
vn -0.0000 -0.0000 -1.0000
vn -0.0000 -1.0000 -0.0000
vn -0.0000 -0.0000 1.0000
vn -1.0000 -0.0000 -0.0000
vn 1.0000 -0.0000 -0.0000
vt 0.375000 0.000000
vt 0.375000 1.000000
vt 0.125000 0.750000
vt 0.625000 0.000000
vt 0.625000 1.000000
vt 0.875000 0.750000
vt 0.375000 0.250000
vt 0.125000 0.500000
vt 0.625000 0.250000
vt 0.875000 0.500000
vt 0.375000 0.750000
vt 0.625000 0.750000
vt 0.375000 0.500000
vt 0.625000 0.500000
s 0
usemtl Material.001
f 65/113/31 66/116/31 68/121/31 67/119/31
f 67/119/32 68/121/32 72/126/32 71/125/32
f 71/125/33 72/126/33 70/124/33 69/123/33
f 69/123/34 70/124/34 66/117/34 65/114/34
f 67/120/35 71/125/35 69/123/35 65/115/35
f 72/126/36 68/122/36 66/118/36 70/124/36
